<svg xmlns="http://www.w3.org/2000/svg" width="16" height="16" viewBox="0 0 16 16">
<circle fill="#ffffff" cx="8" cy="7.9999933" r="8"/>
<path fill="#000000" d="M8,1c3.8630695,0,7,3.1369309,7,7s-3.1369305,7-7,7s-7-3.1369305-7-7S4.1369281,1,8,1z
	 M8,1.653527C4.5000014,1.653527,1.653527,4.5,1.653527,7.9999986S4.4999986,14.3464718,8,14.3464718
	S14.3464727,11.4999981,14.3464727,8S11.4999981,1.653527,8,1.653527z M5.6004143,3.625v2.3982549h4.8137131V3.625h0.4799166
	C12.319252,4.569767,13.25,6.1686039,13.25,8s-0.930748,3.430233-2.3559561,4.375l0,0h-0.4799166V9.9767447H5.6004143V12.375
	H5.1059556C3.6952908,11.430233,2.75,9.8313961,2.75,8s0.9452908-3.430233,2.3559556-4.375l0,0H5.6004143z M4.9314404,4.5697627
	C3.9570608,5.4273219,3.3898878,6.662787,3.3898878,7.9999957c0,1.3372121,0.5671759,2.5726762,1.5415525,3.4302325l0,0V4.5697627z
	 M11.0685596,4.5697641v6.8459291c0.9598341-0.8575573,1.5270081-2.0930223,1.5270081-3.4302325
	C12.5955677,6.6627855,12.0283947,5.4273205,11.0685596,4.5697641L11.0685596,4.5697641z M10.4141273,6.6773214H5.6004143V9.308136
	h4.8137131V6.6773214z"/>
</svg>